# xmcd
#
# Track frame offsets: 
#        150
#        23653
#        43982
#        67277
#        88615
#        106032
#        132781
#        154821
#        170664
#        190582
#        208633
#        223735
#        237107
#        254191
#
# Disc length: 3501 seconds
#
# Revision: 3
# Processed by: cddbd v1.5.2PL0 Copyright (c) Steve Scherf et al.
# Submitted via: ExactAudioCopyFreeDBPlugin 1.0
#
DISCID=cb0dab0e
DTITLE=Ute Lemper - But One Day
DYEAR=2002
DGENRE=Blues
TTITLE0=I Surrender
TTITLE1=Buenos Aires
TTITLE2=September Song
TTITLE3=Lena (feat. Laurie Anderson)
TTITLE4=Ne Me Quitte Pas
TTITLE5=But One Day
TTITLE6=Speak Low
TTITLE7=Living Without You
TTITLE8=Oblivion
TTITLE9=Little Face
TTITLE10=Amsterdam
TTITLE11=Ballad of Marie Sanders
TTITLE12=To Those Born Later 1&2 (An Die Nachgeborenen)
TTITLE13=On Brecht - Epilogue
EXTD=
EXTT0=
EXTT1=
EXTT2=
EXTT3=
EXTT4=
EXTT5=
EXTT6=
EXTT7=
EXTT8=
EXTT9=
EXTT10=
EXTT11=
EXTT12=
EXTT13=
PLAYORDER=
